<svg width="154" height="139" viewBox="0 0 154 139" fill="none" xmlns="http://www.w3.org/2000/svg">
<path d="M40.3718 64.1968C40.3718 74.138 48.4306 82.1968 58.3718 82.1968L85.3718 82.1968C88.1332 82.1968 90.3718 79.9583 90.3718 77.1968L90.3718 43.1968C90.3718 37.674 85.8946 33.1968 80.3718 33.1968L45.3718 33.1968C42.6103 33.1968 40.3718 35.4354 40.3718 38.1968L40.3718 64.1968Z" fill="#FFF1DA"/>
<path d="M89.0289 78.1494C87.6672 78.3625 86.3367 78.8492 85.12 79.5787C81.9509 81.427 80.0803 84.2698 80.9422 85.9277C81.804 87.5856 85.0717 87.4304 88.2408 85.5821C89.4732 84.8829 90.5728 83.9526 91.4718 82.8488C91.8893 82.3141 91.9734 81.6144 91.6865 81.0643L90.5669 78.9106C90.2821 78.359 89.6785 78.0607 89.0289 78.1494Z" fill="#D5D6DB"/>
<path d="M81.1217 51.1532C80.1343 51.308 79.1695 51.661 78.2871 52.1901C75.9898 53.53 74.6327 55.5913 75.2571 56.7924C75.8815 57.9936 78.2518 57.8809 80.5489 56.5411C81.4426 56.0338 82.2398 55.3589 82.8918 54.5584C83.1942 54.1709 83.255 53.6639 83.0471 53.2651L82.2364 51.7056C82.0302 51.3058 81.5928 51.089 81.1217 51.1532Z" fill="#D5D6DB"/>
<path d="M68.3138 51.4438C68.0951 51.4015 67.8606 51.4445 67.6559 51.5638L62.258 54.7044C61.8065 54.9661 61.6191 55.5226 61.8398 55.9474C61.8902 56.0447 61.96 56.1299 62.0452 56.198L75.0762 66.6708L93.0753 56.1988L68.3138 51.4438Z" fill="#029BC5"/>
<path d="M124.607 52.7395L75.903 82.3077L47.2302 92.4568L32.6694 94.4122L31.1327 91.2507L112.294 43.0464C114.713 41.6028 117.391 40.8204 120.059 40.7787C121.227 40.7674 122.377 40.9107 123.484 41.2045C124.465 41.4564 125.392 41.8586 126.238 42.399C127.182 43.0101 128.998 43.2287 129.566 44.3321C129.568 44.3306 130.863 49.2822 124.607 52.7395Z" fill="#E1E6E9"/>
<path d="M76.9135 76.5663L55.4175 110.818C55.148 111.302 55.2931 111.881 55.7411 112.11C56.016 112.251 56.3559 112.232 56.644 112.06L62.0206 108.852C63.0548 108.235 63.9751 107.419 64.7247 106.454L106.097 58.3373L76.9135 76.5663Z" fill="#029BC5"/>
<path d="M23.8275 75.7592C23.4784 75.6101 23.06 75.6428 22.7044 75.8467L18.2387 78.4077C17.6302 78.7564 17.3793 79.4952 17.678 80.0581C17.735 80.1651 17.8095 80.2611 17.8993 80.3423L30.1528 91.4502L43.3054 84.07L23.8275 75.7592Z" fill="#029BC5"/>
<path d="M34.4917 92.724L27.6957 102.247C27.5961 102.384 27.6158 102.568 27.7395 102.657C27.8288 102.722 27.9522 102.722 28.0536 102.657L32.2052 100.172C32.2374 100.153 32.2668 100.128 32.2912 100.099L42.1872 88.1234L34.4917 92.724Z" fill="#029BC5"/>
<path d="M122.5 41.1486C121.351 40.8631 120.157 40.7278 118.945 40.7452C117.74 42.391 116.956 44.2846 116.672 46.2371C116.648 46.6318 116.946 46.9407 117.339 46.927C117.461 46.9226 117.582 46.887 117.693 46.8231L125.362 42.3181C124.482 41.7868 123.518 41.3931 122.5 41.1486Z" fill="#029BC5"/>
<path d="M105.899 49.6144L110.937 46.8253L115.492 55.0422L110.453 57.8313L105.899 49.6144Z" fill="#D5D6DB"/>
<path d="M102.784 52.9949C102.18 53.3301 101.932 54.0482 102.232 54.5986L102.717 55.4904C103.037 56.029 103.778 56.1789 104.372 55.8251C104.938 55.4882 105.172 54.8117 104.906 54.2768L104.421 53.3851C104.121 52.8351 103.389 52.6603 102.784 52.9949Z" fill="#3A556A"/>
<path d="M98.3199 55.7674C97.7152 56.1026 97.4675 56.8206 97.767 57.3711L98.2524 58.2628C98.5721 58.8015 99.3132 58.9514 99.9078 58.5976C100.474 58.2607 100.707 57.5841 100.442 57.0493L99.9562 56.1575C99.6566 55.6077 98.9243 55.4329 98.3199 55.7674Z" fill="#3A556A"/>
<path d="M93.854 58.5406C93.25 58.8764 93.0031 59.5936 93.3024 60.1436L93.7878 61.0353C94.1075 61.5739 94.8486 61.7238 95.4432 61.3701C96.009 61.0331 96.2424 60.3566 95.9769 59.8218L95.4916 58.9301C95.192 58.3796 94.459 58.2053 93.854 58.5406Z" fill="#3A556A"/>
<path d="M89.3898 61.313C88.7857 61.6488 88.5389 62.366 88.8382 62.916L89.3235 63.8077C89.6433 64.3464 90.3844 64.4963 90.9789 64.1425C91.5448 63.8056 91.7782 63.1291 91.5127 62.5942L91.0274 61.7024C90.7275 61.1522 89.9945 60.9778 89.3898 61.313Z" fill="#3A556A"/>
<path d="M84.9259 64.0854C84.3214 64.4212 84.0745 65.1384 84.374 65.6883L84.8597 66.58C85.1591 67.1297 85.8919 67.3039 86.4964 66.969C87.101 66.6341 87.3483 65.917 87.0489 65.3673L86.5633 64.4755C86.2646 63.9254 85.5321 63.7505 84.9272 64.0847C84.9266 64.085 84.9264 64.0852 84.9259 64.0854Z" fill="#3A556A"/>
<path d="M80.4615 66.8579C79.8571 67.1936 79.6101 67.9108 79.9096 68.4608L80.3953 69.3525C80.6947 69.9022 81.4275 70.0763 82.0321 69.7414C82.6366 69.4065 82.884 68.6894 82.5846 68.1397L82.0989 67.248C81.8003 66.6979 81.0677 66.523 80.4628 66.8572C80.4623 66.8575 80.4618 66.8578 80.4615 66.8579Z" fill="#3A556A"/>
<path d="M75.9969 69.6305C75.3925 69.9662 75.1455 70.6834 75.445 71.2334L75.9307 72.1251C76.2309 72.6743 76.964 72.8473 77.5679 72.5119C78.1708 72.177 78.4177 71.4614 78.1197 70.9124L77.634 70.0207C77.3347 69.4707 76.6019 69.2959 75.9969 69.6305Z" fill="#3A556A"/>
<path d="M71.5323 72.4029C70.9279 72.7387 70.6809 73.4559 70.9804 74.0058L71.4661 74.8976C71.7663 75.4469 72.4994 75.6199 73.1033 75.2844C73.7062 74.9495 73.9531 74.2339 73.6551 73.6849L73.1694 72.7932C72.8701 72.2431 72.1373 72.0684 71.5323 72.4029Z" fill="#3A556A"/>
<path d="M67.068 75.1754C66.4636 75.5112 66.2166 76.2283 66.5161 76.7783L67.0018 77.67C67.302 78.2193 68.0351 78.3923 68.639 78.0568C69.2419 77.7219 69.4888 77.0063 69.1908 76.4574L68.7051 75.5657C68.4056 75.0157 67.6728 74.841 67.068 75.1754Z" fill="#3A556A"/>
<path d="M62.6022 77.9486C61.9976 78.2835 61.7503 79.0006 62.0497 79.5503L62.0503 79.5515L62.536 80.4432C62.8361 80.9925 63.5693 81.1655 64.1732 80.8301C64.7761 80.4952 65.0229 79.7795 64.7249 79.2306L64.2393 78.3388C63.94 77.7887 63.2072 77.614 62.6022 77.9486Z" fill="#3A556A"/>
<path d="M58.139 80.7203C57.5345 81.0552 57.2871 81.7723 57.5865 82.322L57.5871 82.3231L58.0728 83.2148C58.373 83.7641 59.1061 83.9371 59.7101 83.6017C60.313 83.2668 60.5598 82.5512 60.2618 82.0022L59.7761 81.1105C59.4766 80.5606 58.7438 80.3859 58.139 80.7203Z" fill="#3A556A"/>
</svg>
